<svg xmlns="http://www.w3.org/2000/svg" viewBox="0 0 1125 916"><defs><style>.cls-1{fill:#282626;}.cls-2,.cls-3,.cls-4{fill:#fff;}.cls-2,.cls-3{stroke:#fff;stroke-miterlimit:10;}.cls-2{stroke-width:8px;}.cls-3{stroke-width:0.75px;}</style></defs><title>Artboard 9 copy</title><g id="bg"><rect class="cls-1" width="1125" height="916"/><path class="cls-2" d="M262.6,251.46a13.82,13.82,0,0,1-9.37-3.44,10.46,10.46,0,0,1-3.95-8.14V113.47a10.49,10.49,0,0,1,3.95-8.15,13.81,13.81,0,0,1,9.37-3.43H278a24.28,24.28,0,0,1,11.52,2.74,20.94,20.94,0,0,1,8.13,7.46l36.57,61.44,16.71,32.59a.79.79,0,0,0,.79.58c.37,0,.48-.19.34-.58q-5.43-37.5-5.42-54.77V113.47a10.46,10.46,0,0,1,4-8.15,13.81,13.81,0,0,1,9.37-3.43h12.64a13.7,13.7,0,0,1,9.48,3.43,10.6,10.6,0,0,1,3.84,8.15V239.88A10.56,10.56,0,0,1,382,248a13.7,13.7,0,0,1-9.48,3.44H357.2a24.44,24.44,0,0,1-11.4-2.75,18.73,18.73,0,0,1-8-7.65l-36.57-61.84L284.73,147a.81.81,0,0,0-.79-.59.51.51,0,0,0-.57.59q.22,3.15,1.92,16.1t2.48,21.79q.8,8.84.79,16.88v38.08a10.59,10.59,0,0,1-3.83,8.14,13.73,13.73,0,0,1-9.49,3.44Z"/><path class="cls-2" d="M472.57,251.46a13.67,13.67,0,0,1-9.48-3.44,10.53,10.53,0,0,1-3.84-8.14V133.1c0-.92-.61-1.38-1.81-1.38H426.06a13.68,13.68,0,0,1-9.48-3.43,10.6,10.6,0,0,1-3.84-8.15v-6.67a10.6,10.6,0,0,1,3.84-8.15,13.68,13.68,0,0,1,9.48-3.43H534a13.83,13.83,0,0,1,9.37,3.43,10.49,10.49,0,0,1,3.95,8.15v6.67a10.49,10.49,0,0,1-3.95,8.15,13.83,13.83,0,0,1-9.37,3.43H502.14c-1.05,0-1.58.46-1.58,1.38V239.88a10.46,10.46,0,0,1-3.95,8.14,13.8,13.8,0,0,1-9.37,3.44Z"/><path class="cls-2" d="M587,251.46a13.8,13.8,0,0,1-9.37-3.44,10.44,10.44,0,0,1-4-8.14V113.47a10.47,10.47,0,0,1,4-8.15,13.79,13.79,0,0,1,9.37-3.43h14.67a13.7,13.7,0,0,1,9.48,3.43,10.6,10.6,0,0,1,3.84,8.15v43.77c0,1,.6,1.57,1.81,1.57h53.28a1.39,1.39,0,0,0,1.58-1.57V113.47a10.49,10.49,0,0,1,3.95-8.15,13.81,13.81,0,0,1,9.37-3.43h14.22a13.74,13.74,0,0,1,9.49,3.43,10.62,10.62,0,0,1,3.83,8.15V239.88a10.59,10.59,0,0,1-3.83,8.14,13.75,13.75,0,0,1-9.49,3.44H685a13.82,13.82,0,0,1-9.37-3.44,10.46,10.46,0,0,1-3.95-8.14V191.39c0-.91-.53-1.37-1.58-1.37H616.84c-1.21,0-1.81.46-1.81,1.37v48.49a10.56,10.56,0,0,1-3.84,8.14,13.7,13.7,0,0,1-9.48,3.44Z"/><path class="cls-2" d="M821.39,254.21q-34.77,0-52.27-17.87t-17.5-55.15V113.47a10.49,10.49,0,0,1,4-8.15,13.81,13.81,0,0,1,9.37-3.43h14.45a13.7,13.7,0,0,1,9.48,3.43,10.6,10.6,0,0,1,3.84,8.15v71.45q0,20.81,7,29.64t21.68,8.83q14.67,0,21.9-8.93t7.22-29.54V113.47a10.49,10.49,0,0,1,4-8.15,13.81,13.81,0,0,1,9.37-3.43h13.1a13.7,13.7,0,0,1,9.48,3.43,10.6,10.6,0,0,1,3.84,8.15v67.72q0,37.49-17,55.25T821.39,254.21Z"/><path class="cls-3" d="M392.18,319.76a3.12,3.12,0,0,1-2.15-.82,2.54,2.54,0,0,1-.91-1.95V286.8a2.52,2.52,0,0,1,.91-1.94,3.07,3.07,0,0,1,2.15-.82h8.28q9.44,0,14.71,4.33t5.28,13.34a21.57,21.57,0,0,1-1.4,8,14,14,0,0,1-4,5.67,17.47,17.47,0,0,1-6.14,3.26,27,27,0,0,1-7.92,1.08Zm6.42-7.27c0,.25.14.38.41.38h.88q5.17,0,8-2.58t2.85-8.58a15.7,15.7,0,0,0-.78-5.27,7.19,7.19,0,0,0-2.3-3.36,9.79,9.79,0,0,0-3.39-1.68,16.47,16.47,0,0,0-4.41-.52H399c-.27,0-.41.11-.41.33Z"/><path class="cls-3" d="M461.14,315.4q-5,5-13.12,5t-13.13-5q-5-5-5-13.69t4.94-13.48q5-4.85,13.16-4.85t13.15,4.85q4.93,4.86,4.94,13.48T461.14,315.4ZM441.88,310a7.72,7.72,0,0,0,12.3,0,13.68,13.68,0,0,0,2.25-8.27c0-3.44-.75-6.13-2.25-8.09a7.36,7.36,0,0,0-6.16-2.93,7.29,7.29,0,0,0-6.14,2.93c-1.49,2-2.23,4.65-2.23,8.09S440.39,308,441.88,310Z"/><path class="cls-3" d="M495.1,320.41a24.44,24.44,0,0,1-7.69-1.17,18.57,18.57,0,0,1-6.21-3.42,15.15,15.15,0,0,1-4.17-5.77,20.12,20.12,0,0,1-1.5-8,19.74,19.74,0,0,1,1.55-7.92,16.54,16.54,0,0,1,4.22-5.9,18.88,18.88,0,0,1,6.16-3.61,21.7,21.7,0,0,1,7.49-1.27,18.86,18.86,0,0,1,10.3,2.86,2.35,2.35,0,0,1,1.14,2.06,2.54,2.54,0,0,1-.78,1.83l-1.14,1.27a3.19,3.19,0,0,1-2,.93H502a3.78,3.78,0,0,1-1.92-.51,10.42,10.42,0,0,0-4.86-1.13,9.39,9.39,0,0,0-7.23,3,11.53,11.53,0,0,0-2.77,8.11q0,5.44,2.7,8.35c1.79,1.94,4.5,2.9,8.13,2.9a6.94,6.94,0,0,0,3.41-.75.5.5,0,0,0,.31-.51v-5.06c0-.25-.12-.38-.36-.38H496.6a3.12,3.12,0,0,1-2.15-.8,2.51,2.51,0,0,1-.9-2v-1.45a2.53,2.53,0,0,1,.9-2,3.16,3.16,0,0,1,2.15-.79h8.6a3.16,3.16,0,0,1,2.15.79,2.53,2.53,0,0,1,.9,2v11.16a4.71,4.71,0,0,1-2.43,4.45A21.56,21.56,0,0,1,495.1,320.41Z"/><path class="cls-3" d="M560.22,319.76a4,4,0,0,1-2.4-.75,3.6,3.6,0,0,1-1.43-1.93l-1.4-5.2a.47.47,0,0,0-.51-.33H543.6c-.28,0-.43.11-.47.33l-1.44,5.2a3.65,3.65,0,0,1-1.43,1.93,4.08,4.08,0,0,1-2.41.75h-3.52a2.18,2.18,0,0,1-1.81-.85,1.69,1.69,0,0,1-.47-1.17,2,2,0,0,1,.11-.61l10.46-30.47a3.71,3.71,0,0,1,1.5-1.9,4.37,4.37,0,0,1,2.48-.72h5.23a4.34,4.34,0,0,1,2.44.72,3.82,3.82,0,0,1,1.5,1.9l10.46,30.47a2,2,0,0,1,.1.61,1.68,1.68,0,0,1-.46,1.17,2.19,2.19,0,0,1-1.81.85ZM545.1,304.57a.28.28,0,0,0,0,.26.33.33,0,0,0,.26.11h7.25a.31.31,0,0,0,.26-.11.23.23,0,0,0,.05-.26l-.77-2.67q-.53-1.87-1.56-5.79t-1.5-5.6a.15.15,0,0,0-.15-.1c-.07,0-.11,0-.11.1q-2.07,8-3,11.39Z"/><path class="cls-3" d="M592.42,320.41a24.44,24.44,0,0,1-7.69-1.17,18.57,18.57,0,0,1-6.21-3.42,15.15,15.15,0,0,1-4.17-5.77,20.12,20.12,0,0,1-1.5-8,19.74,19.74,0,0,1,1.55-7.92,16.54,16.54,0,0,1,4.22-5.9,18.88,18.88,0,0,1,6.16-3.61,21.7,21.7,0,0,1,7.49-1.27,18.86,18.86,0,0,1,10.3,2.86,2.35,2.35,0,0,1,1.14,2.06,2.54,2.54,0,0,1-.78,1.83l-1.14,1.27a3.19,3.19,0,0,1-2,.93h-.41a3.78,3.78,0,0,1-1.92-.51,10.42,10.42,0,0,0-4.86-1.13,9.39,9.39,0,0,0-7.23,3,11.53,11.53,0,0,0-2.77,8.11q0,5.44,2.7,8.35c1.79,1.94,4.5,2.9,8.13,2.9a6.94,6.94,0,0,0,3.41-.75.5.5,0,0,0,.31-.51v-5.06c0-.25-.12-.38-.36-.38h-2.85a3.12,3.12,0,0,1-2.15-.8,2.51,2.51,0,0,1-.9-2v-1.45a2.53,2.53,0,0,1,.9-2,3.16,3.16,0,0,1,2.15-.79h8.6a3.16,3.16,0,0,1,2.15.79,2.53,2.53,0,0,1,.9,2v11.16a4.71,4.71,0,0,1-2.43,4.45A21.56,21.56,0,0,1,592.42,320.41Z"/><path class="cls-3" d="M620.53,319.76a3.12,3.12,0,0,1-2.15-.82,2.57,2.57,0,0,1-.91-1.95V286.8a2.55,2.55,0,0,1,.91-1.94,3.07,3.07,0,0,1,2.15-.82h18.9a3.08,3.08,0,0,1,2.18.82,2.59,2.59,0,0,1,.88,1.94v1.6a2.57,2.57,0,0,1-.88,1.94,3.08,3.08,0,0,1-2.18.82H627.36c-.27,0-.41.11-.41.33v5.95c0,.22.14.33.41.33h9.74a3.12,3.12,0,0,1,2.18.82,2.61,2.61,0,0,1,.88,2v1.69a2.59,2.59,0,0,1-.88,1.94,3.08,3.08,0,0,1-2.18.82h-9.74c-.27,0-.41.11-.41.33v6.89c0,.22.14.33.41.33h12.69a3.07,3.07,0,0,1,2.15.82,2.55,2.55,0,0,1,.91,1.94V317a2.57,2.57,0,0,1-.91,1.95,3.12,3.12,0,0,1-2.15.82Z"/><path class="cls-3" d="M657.91,319.76a3.12,3.12,0,0,1-2.15-.82,2.54,2.54,0,0,1-.91-1.95V286.8a2.52,2.52,0,0,1,.91-1.94,3.07,3.07,0,0,1,2.15-.82h3.52a5.49,5.49,0,0,1,2.64.65,4.92,4.92,0,0,1,1.86,1.79l8.39,14.67,3.83,7.78a.2.2,0,0,0,.18.14c.09,0,.12-.05.08-.14a106.38,106.38,0,0,1-1.24-13.08V286.8a2.52,2.52,0,0,1,.91-1.94,3.07,3.07,0,0,1,2.14-.82h2.9a3.06,3.06,0,0,1,2.18.82,2.56,2.56,0,0,1,.88,1.94V317a2.58,2.58,0,0,1-.88,1.95,3.11,3.11,0,0,1-2.18.82H679.6a5.38,5.38,0,0,1-2.61-.66,4.39,4.39,0,0,1-1.84-1.83l-8.39-14.76L663,294.82a.18.18,0,0,0-.18-.14c-.09,0-.13.05-.13.14,0,.5.18,1.78.44,3.84s.45,3.8.57,5.21.18,2.75.18,4V317a2.58,2.58,0,0,1-.88,1.95,3.1,3.1,0,0,1-2.17.82Z"/><path class="cls-3" d="M710,319.76a3.08,3.08,0,0,1-2.17-.82A2.58,2.58,0,0,1,707,317v-25.5q0-.33-.42-.33h-7.2a3.05,3.05,0,0,1-2.17-.82,2.54,2.54,0,0,1-.88-1.94v-1.6a2.56,2.56,0,0,1,.88-1.94,3.05,3.05,0,0,1,2.17-.82h24.76a3.11,3.11,0,0,1,2.15.82,2.54,2.54,0,0,1,.9,1.94v1.6a2.53,2.53,0,0,1-.9,1.94,3.11,3.11,0,0,1-2.15.82h-7.31q-.36,0-.36.33V317a2.56,2.56,0,0,1-.9,1.95,3.14,3.14,0,0,1-2.15.82Z"/></g><g id="Layer_1" data-name="Layer 1"><path class="cls-4" d="M489.59,495.08c-15-31.95-57.08-40.44-88.82-27s-54.91,42.71-74.83,72.13S287.23,601,259.59,622.38c-32.16,24.85-73.49,33.79-104.81,59.81-37.85,31.45-55.67,88.89-39.08,135.91S184,895.7,230.42,882.81c46.83-13,76.51-60.82,101.13-105,22.91-41.15,45.47-82.53,68-123.9,30.28-55.55,59.53-103.75,89.81-159.29"/><path class="cls-4" d="M635.41,495.08c15-31.95,57.08-40.44,88.82-27s54.91,42.71,74.83,72.13,38.71,60.84,66.35,82.21c32.16,24.85,73.49,33.79,104.81,59.81,37.85,31.45,55.67,88.89,39.08,135.91S941,895.7,894.58,882.81c-46.83-13-76.51-60.82-101.13-105-22.91-41.15-45.47-82.53-68-123.9-30.28-55.55-59.53-103.75-89.81-159.29"/><path class="cls-4" d="M794.6,916c-18.82-79.26-32.4-165-32.4-253.93,0-109.81-128.37-203.77-199.7-203.77s-199.7,94-199.7,203.77c0,88.94-13.58,174.67-32.4,253.93Z"/><path class="cls-1" d="M803.28,913.61q-8.1-34.12-14.5-68.6-3.19-17.41-5.89-34.9-1.39-9-2.63-18.1l-.24-1.74c.26,1.93-.12-.93-.14-1.07-.18-1.3-.34-2.61-.51-3.91q-.58-4.57-1.14-9.15-4.38-36.6-6.11-73.47-.82-18.48-.91-37a190.58,190.58,0,0,0-2-27.52c-5.13-34.15-21.76-65.53-42.88-92.44A284.49,284.49,0,0,0,651,479.25c-24.32-14.86-51.8-27-80.45-29.58-26.64-2.4-53.55,7.14-77,18.79a283.2,283.2,0,0,0-78.83,58.71c-23.73,25-43.35,54.68-53.6,87.78-5.26,17-7.19,34.37-7.29,52.11q-.21,37-3.42,73.93-1.53,18-3.71,36-.53,4.35-1.08,8.7l-.57,4.35c-.37,2.78.14-1-.09.64-.14,1-.27,2-.41,3q-1.23,8.84-2.59,17.66-5.42,34.94-12.83,69.51-3.49,16.38-7.37,32.7A9.11,9.11,0,0,0,330.4,925H775.76c6,0,12,.08,18,0h.79c4.71,0,9.22-4.14,9-9a9.15,9.15,0,0,0-9-9H349.24c-6,0-12-.14-18.05,0h-.79l8.68,11.39a1277.18,1277.18,0,0,0,25.26-138.76q4.46-36.11,6.32-72.48.91-18.23,1.1-36.47c.05-5.08,0-10.16.19-15.23.1-2,.23-4,.41-6,.09-1,.18-2,.29-3,.08-.72.63-2.34.36-3l-.17,1.21c.06-.39.11-.79.17-1.18l.18-1.18q.22-1.47.48-2.94c.38-2.16.8-4.3,1.27-6.44q1.28-5.82,3-11.55c1.17-3.91,2.48-7.79,3.92-11.61.67-1.78,1.38-3.55,2.1-5.31.79-2-.82,1.88,0-.06l.47-1.11c.49-1.1,1-2.2,1.48-3.29a204.94,204.94,0,0,1,11.6-21.62q3.28-5.33,6.86-10.47c1.16-1.68,2.35-3.34,3.55-5l1.83-2.46.74-1c.7-.92.86-1.25.09-.13,4.7-6.82,10.71-13.08,16.39-19.09s11.75-11.87,18-17.41q4.53-4,9.23-7.81c1.55-1.26,3.12-2.5,4.69-3.74s-1.22.91-.17.13c.4-.29.79-.6,1.19-.9l2.62-2q9.49-7,19.56-13.26,9.75-6,20-11.15c3.28-1.63,6.58-3.18,9.93-4.65.72-.32,1.46-.6,2.17-.94-2.63,1.25,0,0,.72-.29,1.73-.71,3.48-1.4,5.23-2.06a167.79,167.79,0,0,1,19-5.92c2.92-.71,5.86-1.34,8.83-1.85l2.15-.35c.82-.13,3.45-.27.17-.05,1.39-.09,2.79-.33,4.18-.46a89.48,89.48,0,0,1,16.53,0c.7.06,1.39.14,2.09.22s3.31.72.14,0c1.47.33,3,.45,4.51.72,3,.54,6.08,1.2,9.08,2a168.45,168.45,0,0,1,19,6.05c1.44.55,2.87,1.11,4.29,1.7l1.44.59-.72-.3c.94.46,1.94.83,2.89,1.25q4.9,2.18,9.69,4.58a267.53,267.53,0,0,1,39.8,24.7l2.37,1.79a9.86,9.86,0,0,1,1,.72c-1.73-1.66-.37-.28.07.06q2.37,1.85,4.69,3.75,4.92,4,9.67,8.24,9.12,8.14,17.51,17,4.41,4.69,8.6,9.6c1.27,1.48,2.51,3,3.74,4.48.58.71,1.16,1.43,1.73,2.15l1.15,1.44c.27.36,1.67,2,.09.12,5.37,6.29,9.91,13.61,14.2,20.65a204.26,204.26,0,0,1,11.63,21.93c.37.82.74,1.65,1.1,2.48a11.92,11.92,0,0,1,.59,1.38c-.55-2-.43-1-.21-.49.83,2,1.65,4.08,2.41,6.15,1.39,3.73,2.66,7.52,3.78,11.35q1.77,6,3.06,12.14.59,2.77,1.07,5.56.25,1.47.48,2.94l.21,1.48c.32,2.1-.25-2.14,0,0,1.1,9.31,1.08,18.56,1.19,27.92.27,24.2,1.54,48.38,3.67,72.48a1178.18,1178.18,0,0,0,21.62,141.17q3.5,16.39,7.37,32.7c1.09,4.59,6.56,7.75,11.07,6.29A9.19,9.19,0,0,0,803.28,913.61Z"/><path class="cls-1" d="M497.52,577.24H535.6c4.71,0,9.22-4.14,9-9a9.16,9.16,0,0,0-9-9H497.52c-4.7,0-9.21,4.14-9,9a9.17,9.17,0,0,0,9,9Z"/><path class="cls-1" d="M589.4,577.24h38.08c4.7,0,9.21-4.14,9-9a9.16,9.16,0,0,0-9-9H589.4c-4.71,0-9.22,4.14-9,9a9.17,9.17,0,0,0,9,9Z"/><ellipse class="cls-1" cx="562.5" cy="676.32" rx="24.73" ry="21.12"/><path class="cls-4" d="M651,412.93c-17.15-25.83-62.33-29.75-85.78-29.75s-68.64,3.92-85.79,29.75S465.69,481,465.69,481s74.61-5,99.48-5h.05c24.87,0,99.48,5,99.48,5S668.13,438.77,651,412.93Z"/><path class="cls-4" d="M664.46,481,589,454.46H540.73L465.5,480.59s-9.67,49.32-.24,57.9,61.89-6.26,99.6-6.42c37.71.16,90.19,15,99.6,6.42S664.46,481,664.46,481Z"/><path class="cls-1" d="M752.22,627.43c-1.5,3-3.15,6-4.81,8.89q-6.28,11.05-13.42,21.59-5.21,7.7-10.87,15.05l1.41-1.82a212.87,212.87,0,0,1-25.94,28.4q-4.05,3.65-8.36,7l1.82-1.41a103.91,103.91,0,0,1-22.47,13.47l2.15-.91a69.7,69.7,0,0,1-17.69,5l2.4-.33a58.67,58.67,0,0,1-9.55.48c-4.71-.15-9.22,4.25-9,9a9.18,9.18,0,0,0,9,9c13.73.43,27.2-3.75,39.19-10.23s22.7-15.35,32.26-25a254.07,254.07,0,0,0,25.77-30.83c6-8.25,11.52-16.81,16.67-25.59,2.4-4.09,4.78-8.22,6.89-12.46l.09-.18a9.58,9.58,0,0,0,.91-6.94,9.13,9.13,0,0,0-4.14-5.37c-4.07-2.16-10.07-1.27-12.31,3.22Z"/><rect class="cls-1" x="610.45" y="711.18" width="64.42" height="42.24" rx="20"/><ellipse class="cls-4" cx="516.03" cy="625.63" rx="36.43" ry="28.51"/><path class="cls-1" d="M545,625.63a25.56,25.56,0,0,1-.21,3l.27-2a24,24,0,0,1-1.68,6l.76-1.79a27.3,27.3,0,0,1-2.67,4.74c-.15.21-.31.41-.45.62-.47.69,1.15-1.41.6-.79-.31.36-.6.73-.91,1.08a28.25,28.25,0,0,1-2.1,2.14q-.52.49-1.08,1c-.28.24-1.66,1.33-.51.43s-.27.19-.57.39-.82.56-1.24.83a41,41,0,0,1-5.61,2.93l1.8-.76a44.43,44.43,0,0,1-11.2,3l2-.27a47.54,47.54,0,0,1-12.27,0l2,.27a44.36,44.36,0,0,1-11.19-3l1.79.76a39.81,39.81,0,0,1-5.46-2.84c-.84-.53-1.63-1.13-2.46-1.69,2.15,1.46.51.39,0-.05s-.73-.63-1.09-1c-.69-.64-1.36-1.32-2-2-.32-.35-.61-.71-.92-1.06-.63-.74.59.73.6.78,0-.19-.34-.46-.46-.62a26.81,26.81,0,0,1-2.76-4.86l.76,1.79a24.43,24.43,0,0,1-1.68-6l.27,2a23.56,23.56,0,0,1,0-6l-.27,2a24.31,24.31,0,0,1,1.68-6l-.76,1.79a26.59,26.59,0,0,1,2.67-4.74c.15-.21.32-.41.46-.62.46-.7-1.15,1.41-.6.78.3-.35.59-.72.9-1.07.67-.75,1.37-1.47,2.1-2.15.36-.33.72-.65,1.09-1s1.66-1.32.5-.43.28-.18.57-.38.83-.56,1.25-.83a39.23,39.23,0,0,1,5.6-2.93l-1.79.75a44.78,44.78,0,0,1,11.19-3l-2,.27a48.45,48.45,0,0,1,12.27,0l-2-.27a44.85,44.85,0,0,1,11.2,3l-1.8-.75a39.4,39.4,0,0,1,5.47,2.84c.84.53,1.63,1.13,2.45,1.69-2.14-1.46-.5-.39,0,0s.73.63,1.08,1c.7.65,1.37,1.33,2,2,.31.35.61.71.91,1.07.63.74-.59-.74-.6-.79,0,.2.35.46.46.62a26.56,26.56,0,0,1,2.76,4.87l-.76-1.79a23.89,23.89,0,0,1,1.68,6l-.27-2a25.39,25.39,0,0,1,.21,3c0,3.92,3.43,7.68,7.5,7.5a7.62,7.62,0,0,0,7.5-7.5c-.12-16.92-13.92-29.53-29.31-34-16.31-4.72-35.66-1.3-48.13,10.62a33.57,33.57,0,0,0-10.32,21.08,30.33,30.33,0,0,0,6.2,20.87,43.84,43.84,0,0,0,20.27,14.51c8.44,3.08,17.6,3.47,26.41,2.11a47.05,47.05,0,0,0,22.52-10.15A33.29,33.29,0,0,0,559.28,632a35.77,35.77,0,0,0,.69-6.36c0-3.92-3.47-7.68-7.5-7.5A7.64,7.64,0,0,0,545,625.63Z"/><circle class="cls-1" cx="515.5" cy="624.58" r="11.62"/><ellipse class="cls-4" cx="608.97" cy="625.63" rx="36.43" ry="28.51"/><path class="cls-1" d="M637.9,625.63a23.6,23.6,0,0,1-.2,3l.27-2a24.43,24.43,0,0,1-1.68,6l.76-1.79a27.3,27.3,0,0,1-2.67,4.74c-.15.21-.32.41-.46.62-.46.69,1.15-1.41.6-.79-.3.36-.59.73-.9,1.08-.67.75-1.37,1.46-2.1,2.14-.36.33-.72.65-1.09,1s-1.66,1.33-.5.43-.28.19-.57.39l-1.25.83a40.27,40.27,0,0,1-5.6,2.93l1.79-.76a44.36,44.36,0,0,1-11.19,3l2-.27a47.54,47.54,0,0,1-12.27,0l2,.27a44.43,44.43,0,0,1-11.2-3l1.8.76a40.51,40.51,0,0,1-5.47-2.84c-.84-.53-1.63-1.13-2.45-1.69,2.14,1.46.5.39,0-.05s-.73-.63-1.08-1a27.36,27.36,0,0,1-2-2c-.31-.35-.61-.71-.91-1.06-.63-.74.59.73.6.78,0-.19-.35-.46-.46-.62a26.81,26.81,0,0,1-2.76-4.86l.76,1.79a24,24,0,0,1-1.68-6l.27,2a23.56,23.56,0,0,1,0-6l-.27,2a23.89,23.89,0,0,1,1.68-6l-.76,1.79a26.59,26.59,0,0,1,2.67-4.74c.15-.21.31-.41.45-.62.47-.7-1.15,1.41-.6.78.31-.35.6-.72.91-1.07a28.39,28.39,0,0,1,2.1-2.15q.52-.49,1.08-1c.28-.23,1.66-1.32.51-.43s.27-.18.57-.38.82-.56,1.24-.83a39.88,39.88,0,0,1,5.61-2.93l-1.8.75a44.85,44.85,0,0,1,11.2-3l-2,.27a48.45,48.45,0,0,1,12.27,0l-2-.27a44.78,44.78,0,0,1,11.19,3l-1.79-.75a38.73,38.73,0,0,1,5.46,2.84c.84.53,1.63,1.13,2.46,1.69-2.15-1.46-.51-.39,0,0s.73.63,1.09,1c.69.65,1.36,1.33,2,2,.32.35.61.71.92,1.07.63.74-.59-.74-.6-.79,0,.2.34.46.46.62a26.56,26.56,0,0,1,2.76,4.87l-.76-1.79a24.31,24.31,0,0,1,1.68,6l-.27-2a23.44,23.44,0,0,1,.2,3c0,3.92,3.43,7.68,7.5,7.5a7.62,7.62,0,0,0,7.5-7.5c-.11-16.92-13.92-29.53-29.3-34-16.32-4.72-35.66-1.3-48.14,10.62a33.6,33.6,0,0,0-10.31,21.08,30.32,30.32,0,0,0,6.19,20.87,43.84,43.84,0,0,0,20.27,14.51A53.39,53.39,0,0,0,618,660.84a47,47,0,0,0,22.51-10.15c5.69-4.63,10.25-11.44,11.67-18.7a34,34,0,0,0,.69-6.36c0-3.92-3.47-7.68-7.5-7.5A7.65,7.65,0,0,0,637.9,625.63Z"/><circle class="cls-1" cx="608.44" cy="624.58" r="11.62"/><path class="cls-1" d="M545.85,743.64,578.5,742a9.48,9.48,0,0,0,6.37-2.64A9.14,9.14,0,0,0,587.5,733c-.21-4.67-4-9.26-9-9l-32.65,1.67a9.52,9.52,0,0,0-6.37,2.63,9.14,9.14,0,0,0-2.63,6.37c.21,4.67,4,9.25,9,9Z"/><ellipse class="cls-4" cx="757.55" cy="435.07" rx="8" ry="32"/><ellipse class="cls-4" cx="757.55" cy="435.07" rx="32" ry="8"/><ellipse class="cls-4" cx="806.05" cy="486.57" rx="4.88" ry="19.5"/><ellipse class="cls-4" cx="806.05" cy="486.57" rx="19.5" ry="4.88"/></g></svg>